<?xml version="1.0" encoding="UTF-8"?>
<svg xmlns="http://www.w3.org/2000/svg" version="1.1" xmlns:xlink="http://www.w3.org/1999/xlink" viewBox="0 0 500 500">
  <!-- Generator: Adobe Illustrator 29.8.2, SVG Export Plug-In . SVG Version: 2.1.1 Build 3)  -->
  <defs>
    <style>
      .st0 {
        fill: #fff;
      }

      .st1 {
        fill: url(#Unbenannter_Verlauf_1001);
      }

      .st2 {
        fill: url(#Unbenannter_Verlauf_100);
      }
    </style>
    <linearGradient id="Unbenannter_Verlauf_100" data-name="Unbenannter Verlauf 100" x1="-512.6" y1="387.8" x2="-24.5" y2="106" gradientUnits="userSpaceOnUse">
      <stop offset="0" stop-color="#284898"/>
      <stop offset=".9" stop-color="#673f92"/>
    </linearGradient>
    <linearGradient id="Unbenannter_Verlauf_1001" data-name="Unbenannter Verlauf 100" x1="0" x2="488.2" y2="106" xlink:href="#Unbenannter_Verlauf_100"/>
  </defs>
  <g id="Ebene_2">
    <rect class="st0" x="68.4" y="64.2" width="356.3" height="379.7"/>
    <rect class="st0" x="79.4" y="588.4" width="332.9" height="370.1"/>
    <rect x="104.9" y="1111.1" width="322.5" height="378.3"/>
  </g>
  <g id="Ebene_1">
    <path class="st2" d="M-139.5,12.3h-257.9c-58.3,0-105.6,47.3-105.6,105.6v257.9c0,58.3,47.3,105.6,105.6,105.6H-139.5c58.3,0,105.6-47.3,105.6-105.6V117.9c0-58.3-47.3-105.6-105.6-105.6ZM-286.7,344.2h-39.3v48.3c-.1,0,15-1.2,15.9,8.7,1,11.3-.4,19.5-10.3,21.7-7.4,1.7-28.5.9-37.7,0-11.2-1.1-14.4-10.5-13.8-21.2.6-10.3,14.9-9,14.9-9v-48.5h-41.2c-9.3,0-19.6-32.9-3.7-32.9h28.3v-178.2c0-7.2,10.3-24.5,14.9-30.8,5.1-6.8,12.3-18.7,21.5-11.2,5.8,4.8,23.9,31.1,23.9,38.3v181.9h30.2c14.7,0,8.7,32.9-3.7,32.9ZM-137.1,380.7h-43.5v43.7h-22.1v-43.7h-43.5v-22.1h43.5v-43.7h22.1v43.7h43.5v22.1ZM-137.1,238.9h-43.5v43.7h-22.1v-43.7h-43.5v-22.1h43.5v-43.7h22.1v43.7h43.5v22.1Z"/>
    <path class="st1" d="M373.1,12.3H115.2C56.8,12.3,9.6,59.6,9.6,117.9v257.9c0,58.3,47.3,105.6,105.6,105.6h257.9c58.3,0,105.6-47.3,105.6-105.6V117.9c0-58.3-47.3-105.6-105.6-105.6ZM226,344.2h-39.3v48.3c-.1,0,15-1.2,15.9,8.7,1,11.3-.4,19.5-10.3,21.7-7.4,1.7-28.5.9-37.7,0-11.2-1.1-14.4-10.5-13.8-21.2.6-10.3,14.9-9,14.9-9v-48.5h-41.2c-9.3,0-19.6-32.9-3.7-32.9h28.3v-178.2c0-7.2,10.3-24.5,14.9-30.8,5.1-6.8,12.3-18.7,21.5-11.2,5.8,4.8,23.9,31.1,23.9,38.3v181.9h30.2c14.7,0,8.7,32.9-3.7,32.9ZM375.6,380.7h-43.5v43.7h-22.1v-43.7h-43.5v-22.1h43.5v-43.7h22.1v43.7h43.5v22.1ZM375.6,238.9h-43.5v43.7h-22.1v-43.7h-43.5v-22.1h43.5v-43.7h22.1v43.7h43.5v22.1Z"/>
    <path d="M-139.5,535.4h-257.9c-58.3,0-105.6,47.3-105.6,105.6v257.9c0,58.3,47.3,105.6,105.6,105.6H-139.5c58.3,0,105.6-47.3,105.6-105.6v-257.9c0-58.3-47.3-105.6-105.6-105.6ZM-286.7,867.3h-39.3v48.3c-.1,0,15-1.2,15.9,8.7,1,11.3-.4,19.5-10.3,21.7-7.4,1.7-28.5.9-37.7,0-11.2-1.1-14.4-10.5-13.8-21.2.6-10.3,14.9-9,14.9-9v-48.5h-41.2c-9.3,0-19.6-32.9-3.7-32.9h28.3v-178.2c0-7.2,10.3-24.5,14.9-30.8,5.1-6.8,12.3-18.7,21.5-11.2,5.8,4.8,23.9,31.1,23.9,38.3v181.9h30.2c14.7,0,8.7,32.9-3.7,32.9ZM-137.1,903.8h-43.5v43.7h-22.1v-43.7h-43.5v-22.1h43.5v-43.7h22.1v43.7h43.5v22.1ZM-137.1,762h-43.5v43.7h-22.1v-43.7h-43.5v-22.1h43.5v-43.7h22.1v43.7h43.5v22.1Z"/>
    <path d="M375.5,535.4H117.6c-58.3,0-105.6,47.3-105.6,105.6v257.9c0,58.3,47.3,105.6,105.6,105.6h257.9c58.3,0,105.6-47.3,105.6-105.6v-257.9c0-58.3-47.3-105.6-105.6-105.6ZM228.4,867.3h-39.3v48.3c-.1,0,15-1.2,15.9,8.7,1,11.3-.4,19.5-10.3,21.7-7.4,1.7-28.5.9-37.7,0-11.2-1.1-14.4-10.5-13.8-21.2.6-10.3,14.9-9,14.9-9v-48.5h-41.2c-9.3,0-19.6-32.9-3.7-32.9h28.3v-178.2c0-7.2,10.3-24.5,14.9-30.8,5.1-6.8,12.3-18.7,21.5-11.2,5.8,4.8,23.9,31.1,23.9,38.3v181.9h30.2c14.7,0,8.7,32.9-3.7,32.9ZM378,903.8h-43.5v43.7h-22.1v-43.7h-43.5v-22.1h43.5v-43.7h22.1v43.7h43.5v22.1ZM378,762h-43.5v43.7h-22.1v-43.7h-43.5v-22.1h43.5v-43.7h22.1v43.7h43.5v22.1Z"/>
    <path class="st0" d="M-139.5,1055.4h-257.9c-58.3,0-105.6,47.3-105.6,105.6v257.9c0,58.3,47.3,105.6,105.6,105.6H-139.5c58.3,0,105.6-47.3,105.6-105.6v-257.9c0-58.3-47.3-105.6-105.6-105.6ZM-286.7,1387.3h-39.3v48.3c-.1,0,15-1.2,15.9,8.7,1,11.3-.4,19.5-10.3,21.7-7.4,1.7-28.5.9-37.7,0-11.2-1.1-14.4-10.5-13.8-21.2.6-10.3,14.9-9,14.9-9v-48.5h-41.2c-9.3,0-19.6-32.9-3.7-32.9h28.3v-178.2c0-7.2,10.3-24.5,14.9-30.8,5.1-6.8,12.3-18.7,21.5-11.2,5.8,4.8,23.9,31.1,23.9,38.3v181.9h30.2c14.7,0,8.7,32.9-3.7,32.9ZM-137.1,1423.8h-43.5v43.7h-22.1v-43.7h-43.5v-22.1h43.5v-43.7h22.1v43.7h43.5v22.1ZM-137.1,1282h-43.5v43.7h-22.1v-43.7h-43.5v-22.1h43.5v-43.7h22.1v43.7h43.5v22.1Z"/>
    <path class="st0" d="M379,1055.4H121c-58.3,0-105.6,47.3-105.6,105.6v257.9c0,58.3,47.3,105.6,105.6,105.6h257.9c58.3,0,105.6-47.3,105.6-105.6v-257.9c0-58.3-47.3-105.6-105.6-105.6ZM231.9,1387.3h-39.3v48.3c-.1,0,15-1.2,15.9,8.7,1,11.3-.4,19.5-10.3,21.7-7.4,1.7-28.5.9-37.7,0-11.2-1.1-14.4-10.5-13.8-21.2.6-10.3,14.9-9,14.9-9v-48.5h-41.2c-9.3,0-19.6-32.9-3.7-32.9h28.3v-178.2c0-7.2,10.3-24.5,14.9-30.8,5.1-6.8,12.3-18.7,21.5-11.2,5.8,4.8,23.9,31.1,23.9,38.3v181.9h30.2c14.7,0,8.7,32.9-3.7,32.9ZM381.4,1423.8h-43.5v43.7h-22.1v-43.7h-43.5v-22.1h43.5v-43.7h22.1v43.7h43.5v22.1ZM381.4,1282h-43.5v43.7h-22.1v-43.7h-43.5v-22.1h43.5v-43.7h22.1v43.7h43.5v22.1Z"/>
  </g>
</svg>